<?xml version="1.0" encoding="UTF-8"?>
<svg id="Layer_1" xmlns="http://www.w3.org/2000/svg" viewBox="0 0 128 128">
  <defs>
    <style>
      .cls-1 {
        fill: #fff;
      }
    </style>
  </defs>
  <rect width="128" height="128"/>
  <path class="cls-1" d="M64.36,106.5c-5.85,0-10.52-1.6-14.01-4.81-3.49-3.21-5.23-7.45-5.23-12.74,0-3.05.7-5.87,2.1-8.48,1.4-2.6,3.27-5.83,5.59-9.68L31.66,21.5h17.79l9.86,26.93c.88,2.57,1.7,4.89,2.46,6.97.76,2.09,1.54,4.53,2.35,7.33h.48c.88-2.8,1.72-5.25,2.52-7.33.8-2.08,1.6-4.41,2.4-6.97l9.86-26.93h16.95l-20.44,49.05c2.32,3.93,4.21,7.21,5.65,9.86,1.44,2.64,2.17,5.49,2.17,8.54,0,5.29-1.74,9.54-5.23,12.74-3.49,3.21-8.2,4.81-14.13,4.81ZM64.36,95.44c1.6,0,2.84-.56,3.73-1.68.88-1.12,1.32-2.64,1.32-4.57,0-1.52-.4-3.11-1.2-4.75-.8-1.64-2-3.75-3.61-6.31h-.6c-1.44,2.48-2.57,4.59-3.37,6.31-.8,1.72-1.2,3.31-1.2,4.75,0,1.92.46,3.45,1.38,4.57.92,1.12,2.1,1.68,3.55,1.68Z"/>
</svg>