<?xml version="1.0" encoding="UTF-8"?>
<svg id="Layer_1" data-name="Layer 1" xmlns="http://www.w3.org/2000/svg" viewBox="0 0 128 128">
  <defs>
    <style>
      .cls-1, .cls-2 {
        stroke-width: 0px;
      }

      .cls-2 {
        fill: #fff;
      }
    </style>
  </defs>
  <rect class="cls-1" width="128" height="128"/>
  <path class="cls-2" d="m58.33,96c-.79,0-.92-.26-1.19-.66-2.77-8.03-18.96-53.6-22.12-62.42-.13-.53-.13-.92.53-.92h10.14c.66,0,.79.26,1.05.79,11.06,33.32,15.8,47.67,17.25,53.07h.26c1.58-5.4,6.45-19.49,18.04-53.2.26-.53.53-.66,1.05-.66h9.09c.4,0,.79.26.53.92-3.82,10.27-19.88,54.39-22.78,62.29-.26.53-.53.79-1.19.79h-10.67Z"/>
</svg>