<?xml version="1.0" encoding="UTF-8"?>
<svg id="Layer_1" xmlns="http://www.w3.org/2000/svg" viewBox="0 0 128 128">
  <defs>
    <style>
      .cls-1 {
        fill: #fff;
      }
    </style>
  </defs>
  <rect width="128" height="128"/>
  <path class="cls-1" d="M64.34,104c-5.51,0-9.9-1.51-13.18-4.53-3.28-3.02-4.92-7.02-4.92-11.99,0-2.87.66-5.53,1.98-7.98,1.32-2.45,3.07-5.49,5.26-9.11l-19.92-46.39h16.75l9.28,25.35c.83,2.41,1.6,4.6,2.32,6.56.72,1.96,1.45,4.26,2.21,6.9h.45c.83-2.64,1.62-4.94,2.38-6.9.75-1.96,1.51-4.15,2.26-6.56l9.28-25.35h15.95l-19.24,46.17c2.19,3.7,3.96,6.79,5.32,9.28,1.36,2.49,2.04,5.17,2.04,8.03,0,4.98-1.64,8.98-4.92,11.99-3.28,3.02-7.71,4.53-13.3,4.53ZM64.34,93.59c1.51,0,2.68-.53,3.51-1.58.83-1.06,1.24-2.49,1.24-4.3,0-1.43-.38-2.92-1.13-4.47-.75-1.55-1.89-3.53-3.4-5.94h-.57c-1.36,2.34-2.41,4.32-3.17,5.94-.75,1.62-1.13,3.11-1.13,4.47,0,1.81.43,3.24,1.3,4.3.86,1.06,1.98,1.58,3.34,1.58Z"/>
</svg>